<mxfile host="app.diagrams.net" modified="2023-06-30T14:29:22.769Z" agent="Mozilla/5.0 (Windows NT 10.0; Win64; x64) AppleWebKit/537.36 (KHTML, like Gecko) Chrome/114.0.0.0 Safari/537.36" etag="ksrW0CaB3RTc_j7knKTp" version="21.5.2" type="device" pages="2">
  <diagram name="Page-1" id="0783ab3e-0a74-02c8-0abd-f7b4e66b4bec">
    <mxGraphModel dx="1434" dy="786" grid="1" gridSize="10" guides="1" tooltips="1" connect="1" arrows="1" fold="1" page="1" pageScale="1" pageWidth="850" pageHeight="1100" background="none" math="0" shadow="0">
      <root>
        <mxCell id="0" />
        <mxCell id="1" parent="0" />
        <mxCell id="1c1d494c118603dd-1" value="Send Message" style="swimlane;html=1;childLayout=stackLayout;startSize=20;rounded=0;shadow=0;comic=0;labelBackgroundColor=none;strokeWidth=1;fontFamily=Verdana;fontSize=12;align=center;" parent="1" vertex="1">
          <mxGeometry x="190" y="30" width="750" height="630" as="geometry">
            <mxRectangle x="40" y="20" width="70" height="30" as="alternateBounds" />
          </mxGeometry>
        </mxCell>
        <mxCell id="1c1d494c118603dd-2" value="Users" style="swimlane;html=1;startSize=20;" parent="1c1d494c118603dd-1" vertex="1">
          <mxGeometry y="20" width="250" height="610" as="geometry">
            <mxRectangle y="20" width="40" height="970" as="alternateBounds" />
          </mxGeometry>
        </mxCell>
        <mxCell id="oAs5PXoXLc2E1MsddGI4-4" style="edgeStyle=orthogonalEdgeStyle;rounded=0;orthogonalLoop=1;jettySize=auto;html=1;startArrow=none;startFill=0;endArrow=classic;endFill=1;" parent="1c1d494c118603dd-2" source="60571a20871a0731-4" edge="1">
          <mxGeometry relative="1" as="geometry">
            <mxPoint x="120" y="110" as="targetPoint" />
          </mxGeometry>
        </mxCell>
        <mxCell id="60571a20871a0731-4" value="" style="ellipse;whiteSpace=wrap;html=1;rounded=0;shadow=0;comic=0;labelBackgroundColor=none;strokeWidth=1;fillColor=#000000;fontFamily=Verdana;fontSize=12;align=center;" parent="1c1d494c118603dd-2" vertex="1">
          <mxGeometry x="100" y="40" width="40" height="40" as="geometry" />
        </mxCell>
        <mxCell id="oAs5PXoXLc2E1MsddGI4-17" style="edgeStyle=orthogonalEdgeStyle;rounded=0;orthogonalLoop=1;jettySize=auto;html=1;exitX=0.5;exitY=1;exitDx=0;exitDy=0;entryX=0.5;entryY=0;entryDx=0;entryDy=0;startArrow=none;startFill=0;endArrow=classic;endFill=1;" parent="1c1d494c118603dd-2" source="-n1WuIuX-QG4b-iMjLdr-1" edge="1">
          <mxGeometry relative="1" as="geometry">
            <mxPoint x="120" y="180" as="sourcePoint" />
            <mxPoint x="120" y="195" as="targetPoint" />
          </mxGeometry>
        </mxCell>
        <mxCell id="-n1WuIuX-QG4b-iMjLdr-1" value="Type Mesage" style="rounded=1;whiteSpace=wrap;html=1;" parent="1c1d494c118603dd-2" vertex="1">
          <mxGeometry x="60" y="110" width="120" height="60" as="geometry" />
        </mxCell>
        <mxCell id="-n1WuIuX-QG4b-iMjLdr-33" style="edgeStyle=orthogonalEdgeStyle;rounded=0;orthogonalLoop=1;jettySize=auto;html=1;exitX=0.5;exitY=1;exitDx=0;exitDy=0;entryX=0.5;entryY=0;entryDx=0;entryDy=0;" parent="1c1d494c118603dd-2" source="-n1WuIuX-QG4b-iMjLdr-31" target="-n1WuIuX-QG4b-iMjLdr-32" edge="1">
          <mxGeometry relative="1" as="geometry" />
        </mxCell>
        <mxCell id="-n1WuIuX-QG4b-iMjLdr-31" value="Choose Type" style="rounded=1;whiteSpace=wrap;html=1;" parent="1c1d494c118603dd-2" vertex="1">
          <mxGeometry x="60" y="200" width="120" height="60" as="geometry" />
        </mxCell>
        <mxCell id="-n1WuIuX-QG4b-iMjLdr-32" value="Press Send" style="rounded=1;whiteSpace=wrap;html=1;" parent="1c1d494c118603dd-2" vertex="1">
          <mxGeometry x="60" y="290" width="120" height="60" as="geometry" />
        </mxCell>
        <mxCell id="-n1WuIuX-QG4b-iMjLdr-35" value="Frontend" style="swimlane;html=1;startSize=20;" parent="1c1d494c118603dd-1" vertex="1">
          <mxGeometry x="250" y="20" width="250" height="610" as="geometry">
            <mxRectangle y="20" width="40" height="970" as="alternateBounds" />
          </mxGeometry>
        </mxCell>
        <mxCell id="oAs5PXoXLc2E1MsddGI4-18" value="Type" style="rhombus;whiteSpace=wrap;html=1;fillColor=#ffffc0;strokeColor=#ff0000;" parent="-n1WuIuX-QG4b-iMjLdr-35" vertex="1">
          <mxGeometry x="60" y="350" width="80" height="40" as="geometry" />
        </mxCell>
        <mxCell id="1c1d494c118603dd-3" value="Backend" style="swimlane;html=1;startSize=20;" parent="1c1d494c118603dd-1" vertex="1">
          <mxGeometry x="500" y="20" width="250" height="610" as="geometry">
            <mxRectangle x="250" y="20" width="40" height="610" as="alternateBounds" />
          </mxGeometry>
        </mxCell>
        <mxCell id="oAs5PXoXLc2E1MsddGI4-33" style="edgeStyle=orthogonalEdgeStyle;rounded=0;orthogonalLoop=1;jettySize=auto;html=1;entryX=0.5;entryY=1;entryDx=0;entryDy=0;startArrow=none;startFill=0;endArrow=classic;endFill=1;exitX=1;exitY=0.5;exitDx=0;exitDy=0;" parent="1c1d494c118603dd-3" source="-n1WuIuX-QG4b-iMjLdr-40" target="oAs5PXoXLc2E1MsddGI4-24" edge="1">
          <mxGeometry relative="1" as="geometry">
            <Array as="points">
              <mxPoint x="170" y="445" />
              <mxPoint x="225" y="445" />
            </Array>
            <mxPoint x="180" y="445" as="sourcePoint" />
          </mxGeometry>
        </mxCell>
        <mxCell id="oAs5PXoXLc2E1MsddGI4-32" style="edgeStyle=orthogonalEdgeStyle;rounded=0;orthogonalLoop=1;jettySize=auto;html=1;entryX=0.5;entryY=0;entryDx=0;entryDy=0;startArrow=none;startFill=0;endArrow=classic;endFill=1;exitX=1;exitY=0.5;exitDx=0;exitDy=0;" parent="1c1d494c118603dd-3" source="-n1WuIuX-QG4b-iMjLdr-39" target="oAs5PXoXLc2E1MsddGI4-24" edge="1">
          <mxGeometry relative="1" as="geometry">
            <mxPoint x="180" y="370" as="sourcePoint" />
          </mxGeometry>
        </mxCell>
        <mxCell id="oAs5PXoXLc2E1MsddGI4-24" value="" style="ellipse;html=1;shape=endState;fillColor=#000000;strokeColor=#ff0000;" parent="1c1d494c118603dd-3" vertex="1">
          <mxGeometry x="210" y="394" width="30" height="30" as="geometry" />
        </mxCell>
        <mxCell id="-n1WuIuX-QG4b-iMjLdr-39" value="Forward Message to User" style="rounded=1;whiteSpace=wrap;html=1;" parent="1c1d494c118603dd-3" vertex="1">
          <mxGeometry x="50" y="340" width="120" height="60" as="geometry" />
        </mxCell>
        <mxCell id="-n1WuIuX-QG4b-iMjLdr-40" value="Broadcast Message" style="rounded=1;whiteSpace=wrap;html=1;" parent="1c1d494c118603dd-3" vertex="1">
          <mxGeometry x="50" y="420" width="120" height="60" as="geometry" />
        </mxCell>
        <mxCell id="oAs5PXoXLc2E1MsddGI4-30" value="Private" style="edgeStyle=orthogonalEdgeStyle;rounded=0;orthogonalLoop=1;jettySize=auto;html=1;entryX=0;entryY=0.5;entryDx=0;entryDy=0;startArrow=none;startFill=0;endArrow=classic;endFill=1;" parent="1c1d494c118603dd-1" source="oAs5PXoXLc2E1MsddGI4-18" target="-n1WuIuX-QG4b-iMjLdr-39" edge="1">
          <mxGeometry relative="1" as="geometry">
            <mxPoint x="540" y="390" as="targetPoint" />
          </mxGeometry>
        </mxCell>
        <mxCell id="-n1WuIuX-QG4b-iMjLdr-36" style="edgeStyle=orthogonalEdgeStyle;rounded=0;orthogonalLoop=1;jettySize=auto;html=1;exitX=0.5;exitY=1;exitDx=0;exitDy=0;entryX=0;entryY=0.5;entryDx=0;entryDy=0;" parent="1c1d494c118603dd-1" source="oAs5PXoXLc2E1MsddGI4-18" target="-n1WuIuX-QG4b-iMjLdr-40" edge="1">
          <mxGeometry relative="1" as="geometry">
            <mxPoint x="540" y="465" as="targetPoint" />
          </mxGeometry>
        </mxCell>
        <mxCell id="-n1WuIuX-QG4b-iMjLdr-37" value="Broadcast" style="edgeLabel;html=1;align=center;verticalAlign=middle;resizable=0;points=[];" parent="-n1WuIuX-QG4b-iMjLdr-36" vertex="1" connectable="0">
          <mxGeometry x="0.1102" y="-1" relative="1" as="geometry">
            <mxPoint as="offset" />
          </mxGeometry>
        </mxCell>
        <mxCell id="oAs5PXoXLc2E1MsddGI4-21" style="edgeStyle=orthogonalEdgeStyle;rounded=0;orthogonalLoop=1;jettySize=auto;html=1;startArrow=none;startFill=0;endArrow=classic;endFill=1;" parent="1c1d494c118603dd-1" source="-n1WuIuX-QG4b-iMjLdr-32" target="oAs5PXoXLc2E1MsddGI4-18" edge="1">
          <mxGeometry relative="1" as="geometry">
            <mxPoint x="120" y="350" as="sourcePoint" />
          </mxGeometry>
        </mxCell>
      </root>
    </mxGraphModel>
  </diagram>
  <diagram id="bwO8OHaiH8qeLq7h-4qP" name="Seite-2">
    <mxGraphModel dx="1038" dy="489" grid="1" gridSize="10" guides="1" tooltips="1" connect="1" arrows="1" fold="1" page="1" pageScale="1" pageWidth="827" pageHeight="1169" math="0" shadow="0">
      <root>
        <mxCell id="0" />
        <mxCell id="1" parent="0" />
      </root>
    </mxGraphModel>
  </diagram>
</mxfile>
